<svg width="37" height="31" viewBox="0 0 37 31" fill="none" xmlns="http://www.w3.org/2000/svg">
<path d="M24.8731 21.6782L18.5093 15.3145L12.1455 21.6782" stroke="#415CE0" stroke-width="2" stroke-linecap="round" stroke-linejoin="round"/>
<path d="M18.5088 15.3145V29.633" stroke="#415CE0" stroke-width="2" stroke-linecap="round" stroke-linejoin="round"/>
<path d="M31.8569 25.4808C33.4087 24.6348 34.6345 23.2962 35.3409 21.6762C36.0474 20.0562 36.1942 18.2471 35.7583 16.5344C35.3223 14.8217 34.3285 13.3029 32.9335 12.2177C31.5385 11.1326 29.8219 10.5429 28.0546 10.5418H26.05C25.5684 8.67916 24.6709 6.94995 23.4248 5.48414C22.1788 4.01833 20.6167 2.85408 18.8559 2.0789C17.0951 1.30372 15.1815 0.937796 13.259 1.00863C11.3364 1.07947 9.45492 1.58522 7.75597 2.48787C6.05701 3.39051 4.58479 4.66657 3.44998 6.22009C2.31518 7.77362 1.54732 9.56419 1.20414 11.4572C0.860953 13.3502 0.951375 15.2964 1.4686 17.1494C1.98583 19.0024 2.91641 20.7141 4.19038 22.1557" stroke="#415CE0" stroke-width="2" stroke-linecap="round" stroke-linejoin="round"/>
<path d="M24.8731 21.6782L18.5093 15.3145L12.1455 21.6782" stroke="#415CE0" stroke-width="2" stroke-linecap="round" stroke-linejoin="round"/>
</svg>
